<?xml version="1.0" standalone="no"?>
<svg xmlns:xlink="http://www.w3.org/1999/xlink" id="wave" style="transform:rotate(0deg); transition: 0.3s" viewBox="0 0 1440 110" version="1.1" xmlns="http://www.w3.org/2000/svg"><defs><linearGradient id="sw-gradient-0" x1="0" x2="0" y1="1" y2="0"><stop stop-color="rgba(133, 19, 181, 1)" offset="0%"/><stop stop-color="rgba(59.552, 58.046, 54.715, 1)" offset="100%"/></linearGradient></defs><path style="transform:translate(0, 0px); opacity:1" fill="url(#sw-gradient-0)" d="M0,11L12.6,14.7C25.3,18,51,26,76,27.5C101.1,29,126,26,152,34.8C176.8,44,202,66,227,75.2C252.6,84,278,81,303,69.7C328.4,59,354,40,379,40.3C404.2,40,429,59,455,60.5C480,62,505,48,531,51.3C555.8,55,581,77,606,77C631.6,77,657,55,682,40.3C707.4,26,733,18,758,16.5C783.2,15,808,18,834,31.2C858.9,44,884,66,909,64.2C934.7,62,960,37,985,23.8C1010.5,11,1036,11,1061,20.2C1086.3,29,1112,48,1137,56.8C1162.1,66,1187,66,1213,58.7C1237.9,51,1263,37,1288,42.2C1313.7,48,1339,73,1364,71.5C1389.5,70,1415,40,1440,25.7C1465.3,11,1491,11,1516,14.7C1541.1,18,1566,26,1592,25.7C1616.8,26,1642,18,1667,27.5C1692.6,37,1718,62,1743,75.2C1768.4,88,1794,88,1806,88L1818.9,88L1818.9,110L1806.3,110C1793.7,110,1768,110,1743,110C1717.9,110,1693,110,1667,110C1642.1,110,1617,110,1592,110C1566.3,110,1541,110,1516,110C1490.5,110,1465,110,1440,110C1414.7,110,1389,110,1364,110C1338.9,110,1314,110,1288,110C1263.2,110,1238,110,1213,110C1187.4,110,1162,110,1137,110C1111.6,110,1086,110,1061,110C1035.8,110,1011,110,985,110C960,110,935,110,909,110C884.2,110,859,110,834,110C808.4,110,783,110,758,110C732.6,110,707,110,682,110C656.8,110,632,110,606,110C581.1,110,556,110,531,110C505.3,110,480,110,455,110C429.5,110,404,110,379,110C353.7,110,328,110,303,110C277.9,110,253,110,227,110C202.1,110,177,110,152,110C126.3,110,101,110,76,110C50.5,110,25,110,13,110L0,110Z"/></svg>